<svg width="181" height="29" viewBox="0 0 181 29" fill="none" xmlns="http://www.w3.org/2000/svg">
<path d="M89.4499 20.7298V2.94336H87.4819V9.78255C87.1387 9.47623 86.7469 9.2014 86.3066 8.95807C84.8792 8.16794 83.3212 7.95037 81.6903 8.12786C80.0594 8.30535 78.6351 8.89795 77.5235 10.0574C76.1599 11.4745 75.7195 13.1835 75.8684 15.0472C75.9868 16.5416 76.5456 17.8728 77.6663 18.9606C79.7041 20.9388 83.3728 21.4284 86.0484 20.0599C86.6012 19.7765 87.078 19.453 87.4819 19.0895V20.7298H89.4499ZM87.4819 14.3487V14.4918C87.3878 16.3498 86.6801 17.8499 84.8579 18.6887C82.1003 19.9597 78.2646 18.7345 77.8515 15.0701C77.6693 13.444 78.0672 11.9754 79.4004 10.8675C80.8794 9.64227 82.6227 9.43901 84.4358 10.0517C86.1912 10.6471 87.1175 11.9239 87.4029 13.633C87.4455 13.8792 87.4606 14.1283 87.4819 14.3487ZM108.784 14.4088C108.762 14.1912 108.747 13.9221 108.705 13.6559C108.425 11.9296 107.493 10.6442 105.722 10.0517C103.882 9.43329 102.123 9.65086 100.641 10.9191C99.3536 12.0212 98.9709 13.4612 99.144 15.0529C99.551 18.7774 103.487 19.9941 106.254 18.6457C108.033 17.7812 108.708 16.2725 108.784 14.4088ZM110.742 14.2886C110.715 16.4357 110.026 18.182 108.307 19.4731C106.828 20.5838 105.1 20.9331 103.247 20.7928C101.65 20.6726 100.231 20.1372 99.0712 19.0694C97.8776 17.9672 97.2824 16.596 97.1609 15.0443C97.0121 13.1921 97.4524 11.4945 98.7978 10.0803C99.9154 8.90654 101.346 8.30822 102.992 8.12786C104.602 7.95323 106.138 8.16794 107.554 8.9323C109.391 9.92855 110.378 11.4659 110.663 13.4211C110.712 13.7475 110.724 14.0824 110.742 14.2886ZM94.9287 20.7356C94.9287 20.7356 93.6197 20.7327 93.0427 20.7327V8.23378H94.9317L94.9256 20.7356H94.9287ZM92.6722 4.56656C92.6722 3.80792 93.2067 3.28117 93.9659 3.28976C94.6978 3.29548 95.2384 3.83941 95.2384 4.56942C95.2384 5.31947 94.7009 5.83477 93.9295 5.83191C93.1733 5.83191 92.6722 5.32233 92.6722 4.56656ZM136.779 14.4002C136.754 14.1712 136.742 13.9021 136.697 13.6359C136.411 11.9239 135.485 10.65 133.73 10.0545C131.916 9.43901 130.173 9.64227 128.691 10.8675C127.358 11.9726 126.957 13.4412 127.142 15.0701C127.555 18.7345 131.391 19.9597 134.149 18.6887C136.001 17.8356 136.703 16.3011 136.779 14.4002ZM138.744 14.3916C138.671 16.8851 137.696 18.8547 135.342 20.0599C132.664 21.4312 128.998 20.9388 126.957 18.9606C125.836 17.8728 125.278 16.5416 125.159 15.0472C125.01 13.1835 125.451 11.4773 126.814 10.0574C127.929 8.89795 129.35 8.30535 130.981 8.125C132.612 7.9475 134.173 8.16508 135.597 8.9552C137.401 9.95145 138.373 11.4773 138.656 13.4097C138.704 13.7475 138.716 14.091 138.741 14.3859M58.9704 14.5806C58.9704 14.5634 58.9704 14.5434 58.9704 14.5262C58.9461 14.2313 58.934 13.8849 58.8854 13.55C58.6029 11.6176 57.6311 10.0917 55.8271 9.09548C54.3997 8.30535 52.8417 8.08778 51.2108 8.26527C49.58 8.44277 48.1556 9.03536 47.0441 10.1977C45.6804 11.6147 45.2401 13.3209 45.3889 15.1875C45.5073 16.6819 46.0661 18.0131 47.1868 19.1009C49.2246 21.0791 52.8933 21.5686 55.569 20.2002C56.1217 19.9168 56.5985 19.5933 57.0024 19.2297V20.8701H58.9704V14.5863V14.5806ZM57.0055 14.5806V14.6264C56.9113 16.4843 56.2037 17.9844 54.3815 18.8232C51.6239 20.0943 47.7881 18.869 47.3751 15.2047C47.1929 13.5757 47.5907 12.1071 48.924 11.0021C50.403 9.77682 52.1462 9.57357 53.9593 10.1891C55.7147 10.7845 56.641 12.0585 56.9265 13.7704C56.9721 14.0366 56.9842 14.3057 57.0085 14.5348C57.0085 14.5491 57.0085 14.5663 57.0085 14.5806M153.397 20.7241V2.94336H151.429V9.78255C151.086 9.47623 150.694 9.2014 150.254 8.95807C148.827 8.16794 147.269 7.95037 145.638 8.12786C144.007 8.30535 142.582 8.89795 141.471 10.0574C140.107 11.4745 139.667 13.1835 139.816 15.0472C139.934 16.5416 140.493 17.8728 141.614 18.9606C143.651 20.9388 147.32 21.4284 149.996 20.0599C150.549 19.7765 151.025 19.453 151.429 19.0895V20.7298H153.397V20.7241ZM151.429 14.343V14.4861C151.335 16.344 150.628 17.8441 148.805 18.6829C146.048 19.954 142.212 18.7287 141.799 15.0644C141.617 13.4383 142.015 11.9697 143.348 10.8618C144.827 9.63655 146.57 9.43329 148.383 10.0459C150.139 10.6414 151.065 11.9182 151.35 13.6273C151.393 13.8735 151.408 14.1225 151.429 14.343ZM118.642 9.69094C115.887 9.69094 113.916 11.5976 113.916 14.3601C113.916 17.1227 115.887 19.0522 118.642 19.0522C120.385 19.0522 121.824 18.4797 122.76 17.4319L123.896 18.5284C122.708 19.8853 120.865 20.6955 118.566 20.6955C114.7 20.6955 111.972 18.0989 111.972 14.3601C111.972 10.6213 114.727 8.0248 118.566 8.0248C120.713 8.0248 122.484 8.71473 123.695 9.88275L122.608 11.1681C121.6 10.2377 120.26 9.69094 118.642 9.69094ZM73.8518 8.96952V20.9016H71.8777V19.224C70.6933 20.2804 69.2203 20.9474 66.815 20.9703C63.699 20.9703 61.8282 19.1095 61.8282 16.0778V8.96952H63.8023V15.6026C63.8023 17.8441 64.9716 19.2984 67.2736 19.2984C70.0343 19.2498 71.8777 17.2258 71.8777 14.5033V8.96952H73.8518ZM165.986 13.7103C165.858 11.2397 164.109 9.63941 161.464 9.63941C158.818 9.63941 157.017 11.2397 156.735 13.7103H165.986ZM156.735 15.2104C157.069 17.7296 158.998 19.3757 161.643 19.3757C163.313 19.3757 164.777 18.7946 165.831 17.7525L166.936 18.8433C165.652 20.1745 163.75 20.9503 161.488 20.9503C157.506 20.9503 154.755 18.3108 154.755 14.5061C154.755 10.7015 157.531 8.08492 161.464 8.06202C168.537 8.06774 167.805 15.2132 167.805 15.2132L156.735 15.2075V15.2104ZM173.645 9.63941C172.151 9.63941 171.012 10.1404 171.012 11.3342C171.012 14.1741 178.456 12.7198 178.456 17.2286C178.456 19.6878 176.126 20.7842 173.569 20.7842C171.668 20.7842 169.721 20.163 168.455 19.0179L169.214 17.6581C170.353 18.66 172.075 19.2584 173.645 19.2584C175.215 19.2584 176.479 18.6858 176.506 17.4205C176.582 14.3659 169.114 15.9175 169.138 11.4773C169.138 9.08976 171.34 8.06488 173.773 8.06488C175.367 8.06488 176.913 8.5172 178.024 9.20999L177.265 10.6414C176.227 10.0202 174.887 9.63941 173.645 9.63941Z" fill="#124680"/>
<path d="M24.3594 6.29857C24.3594 6.29857 27.4176 3.4043 33.1333 3.4043C35.4566 3.4043 39.6113 4.05415 42.3932 8.1422L37.9014 11.2684C37.9014 11.2684 36.6471 8.87794 33.0179 8.87794C30.6065 8.87794 28.4108 10.1318 27.8611 12.1616C26.8224 8.21664 24.3624 6.30143 24.3624 6.30143M31.299 20.5037C31.299 20.5037 31.2625 21.8521 31.6907 23.4524C32.04 24.7578 32.7081 26.0231 32.7081 26.0231C32.7081 26.0231 39.6811 26.4068 42.6908 21.1192L38.0928 18.2249C38.0928 18.2249 36.2797 22.0582 31.299 20.5008" fill="url(#paint0_linear_539_1458)"/>
<path d="M30.5399 20.3483C30.5399 20.3483 30.5035 21.7683 30.8223 23.2512C31.0775 24.4364 31.4966 25.3238 31.776 26.0281C25.0247 26.0281 20.5603 20.7462 20.5603 14.5769C20.5603 12.0491 19.0114 9.12334 14.9843 9.12334C9.28688 9.12334 8.06296 14.5626 10.0401 18.4102C11.926 22.0803 18.3007 22.0746 20.2232 17.3195C20.6514 19.6183 21.7143 21.6165 23.3695 23.3256C15.6828 28.9767 2.55078 25.6531 2.55078 15.2468C2.55078 7.21959 7.96274 3.57812 15.0238 3.57812C22.0849 3.57812 27.4179 8.62235 27.4179 14.8546C27.4179 16.8672 28.3502 19.3091 30.5399 20.3483Z" fill="url(#paint1_linear_539_1458)"/>
<defs>
<linearGradient id="paint0_linear_539_1458" x1="25.8293" y1="12.694" x2="45.5637" y2="18.3831" gradientUnits="userSpaceOnUse">
<stop stop-color="#4DC2FF"/>
<stop offset="0.17" stop-color="#4DC2FF"/>
<stop offset="0.29" stop-color="#4FBCFF"/>
<stop offset="0.43" stop-color="#55ADFF"/>
<stop offset="0.59" stop-color="#5F94FF"/>
<stop offset="0.76" stop-color="#6D71FF"/>
<stop offset="0.93" stop-color="#7F45FF"/>
<stop offset="1" stop-color="#8733FF"/>
</linearGradient>
<linearGradient id="paint1_linear_539_1458" x1="10.5898" y1="8.00685" x2="26.0237" y2="35.784" gradientUnits="userSpaceOnUse">
<stop offset="0.42" stop-color="#124680"/>
<stop offset="0.8" stop-color="#0D2540"/>
<stop offset="1" stop-color="#0C1725"/>
</linearGradient>
</defs>
</svg>
