<svg width="174" height="26" viewBox="0 0 174 26" fill="none" xmlns="http://www.w3.org/2000/svg">
<g clip-path="url(#clip0_137_9447)">
<path d="M21.5234 4.1248C21.5234 4.1248 24.543 1.15332 30.1828 1.15332C32.4751 1.15332 36.5766 1.81852 39.3208 6.01705L34.8873 9.22509C34.8873 9.22509 33.65 6.77119 30.0665 6.77119C27.6862 6.77119 25.5194 8.05733 24.9766 10.1419C23.9512 6.09097 21.5234 4.1248 21.5234 4.1248Z" fill="url(#paint0_linear_137_9447)"/>
<path d="M28.3699 18.7034C28.3699 18.7034 28.3334 20.0882 28.7565 21.7307C29.1024 23.0731 29.761 24.3693 29.761 24.3693C29.761 24.3693 36.644 24.7623 39.6145 19.3367L35.0757 16.3652C35.0757 16.3652 33.2859 20.3 28.3699 18.7034Z" fill="url(#paint1_linear_137_9447)"/>
<path d="M27.6243 18.5493C25.4634 17.4795 24.5445 14.9727 24.5445 12.9084C24.5445 6.51079 19.4565 1.33398 12.3119 1.33398C5.34189 1.33398 0 5.07122 0 13.3124C0 23.9943 12.9605 27.4057 20.5481 21.6049C18.9133 19.8507 17.864 17.801 17.4419 15.4402C15.5419 20.319 9.25162 20.3278 7.39002 16.5589C5.43955 12.6112 6.64697 7.02617 12.2698 7.02617C16.2459 7.02617 17.7741 10.0291 17.7741 12.6256C17.7741 18.9574 22.1795 24.3805 28.8438 24.3805C28.57 23.654 28.1535 22.7433 27.9024 21.5278C27.5886 20.0077 27.6243 18.5493 27.6243 18.5493Z" fill="white"/>
<path d="M85.771 19.2202V0.680664H83.8162V7.7329C83.4748 7.41822 83.0869 7.13379 82.6488 6.88241C81.2316 6.06939 79.683 5.84285 78.0635 6.02612C76.4426 6.2096 75.029 6.82192 73.9231 8.01733C72.5704 9.47953 72.1314 11.2396 72.2793 13.1615C72.3982 14.7018 72.9521 16.0757 74.0655 17.1968C76.0912 19.2362 79.7332 19.7424 82.392 18.3297C82.9406 18.0382 83.4125 17.7029 83.8162 17.3282V19.2202H85.771ZM83.8162 12.4412V12.5894C83.7222 14.5047 83.0193 16.0504 81.2093 16.9159C78.4696 18.2259 74.6606 16.962 74.2508 13.1841C74.0688 11.5058 74.4655 9.9923 75.7908 8.85138C77.2598 7.58688 78.9916 7.37776 80.7923 8.01152C82.5344 8.62484 83.4567 9.94023 83.7392 11.7047C83.7799 11.9591 83.7952 12.2163 83.8162 12.4412Z" fill="white"/>
<path d="M104.839 12.4897C104.816 12.2652 104.802 11.9866 104.76 11.7119C104.483 9.92906 103.557 8.60206 101.799 7.98833C99.9706 7.35037 98.2244 7.57391 96.7514 8.88428C95.4731 10.0214 95.0923 11.51 95.2649 13.1535C95.669 17.0013 99.5765 18.258 102.326 16.8661C104.092 15.9716 104.764 14.4142 104.839 12.4897ZM106.783 12.3659C106.756 14.5847 106.072 16.3892 104.366 17.7212C102.896 18.8681 101.178 19.2287 99.3399 19.0855C97.7543 18.9619 96.3438 18.409 95.1936 17.3046C94.0072 16.1649 93.418 14.7479 93.2948 13.1457C93.1477 11.2326 93.5829 9.47778 94.9213 8.01657C96.0311 6.80495 97.4526 6.18541 99.0862 6.00133C100.682 5.82146 102.21 6.04079 103.615 6.83099C105.44 7.85834 106.421 9.44653 106.705 11.4686C106.752 11.8073 106.765 12.1506 106.783 12.3659Z" fill="white"/>
<path d="M91.1902 19.2154H89.2383L89.2324 6.13184H91.1806L91.1902 19.2154Z" fill="white"/>
<path d="M88.8652 2.38855C88.8665 1.58564 89.4097 1.0286 90.1843 1.03621C90.9315 1.04362 91.4823 1.6185 91.4819 2.39056C91.4815 3.18405 90.9346 3.73308 90.1483 3.72967C89.3768 3.72607 88.8642 3.19026 88.8652 2.38855Z" fill="white"/>
<path d="M132.469 12.4804C132.445 12.2437 132.431 11.9648 132.388 11.6906C132.105 9.92297 131.183 8.60558 129.441 7.99106C127.64 7.3561 125.908 7.56562 124.439 8.83233C123.114 9.97525 122.717 11.4915 122.899 13.1729C123.309 16.9574 127.118 18.2237 129.858 16.9113C131.698 16.0296 132.394 14.4438 132.469 12.4804ZM134.419 12.472C134.346 15.0481 133.379 17.0828 131.041 18.3276C128.382 19.7428 124.739 19.2358 122.714 17.1927C121.6 16.0696 121.046 14.6932 120.928 13.15C120.78 11.2249 121.219 9.46147 122.571 7.99687C123.677 6.79926 125.091 6.18594 126.712 6.00226C128.331 5.81838 129.88 6.04532 131.297 6.85975C133.088 7.8893 134.054 9.46548 134.333 11.4621C134.383 11.8116 134.394 12.1656 134.419 12.472Z" fill="white"/>
<path d="M55.6869 12.6739H55.6846C55.6852 12.6551 55.6865 12.6365 55.6869 12.6174C55.662 12.3112 55.6501 11.9568 55.6011 11.6077C55.3216 9.61091 54.3563 8.03493 52.5647 7.00538C51.1475 6.19075 49.5989 5.96401 47.9794 6.14769C46.3584 6.33136 44.9451 6.94469 43.839 8.14229C42.4865 9.6069 42.0472 11.3704 42.1954 13.2957C42.3141 14.8386 42.8679 16.2153 43.9814 17.3382C46.007 19.3814 49.6491 19.8884 52.3079 18.4731C52.8565 18.1812 53.3286 17.8453 53.7323 17.4698V19.1645H55.6869V12.6739ZM53.7346 12.6739H53.7323V12.7228C53.6383 14.6413 52.9353 16.1896 51.1252 17.0569C48.3857 18.3691 44.5765 17.103 44.1667 13.3185C43.9846 11.6372 44.3814 10.1207 45.7067 8.97795C47.1758 7.71104 48.9075 7.50153 50.7084 8.13668C52.4505 8.75101 53.3727 10.0686 53.6551 11.8363C53.6988 12.1105 53.7131 12.3891 53.7368 12.6261C53.7364 12.6421 53.7354 12.6579 53.7346 12.6739Z" fill="white"/>
<path d="M148.886 19.1986L148.878 0.680664H146.924V7.7329C146.582 7.41822 146.195 7.13379 145.756 6.88241C144.339 6.06939 142.79 5.84285 141.171 6.02612C139.55 6.2096 138.136 6.82192 137.031 8.01733C135.678 9.47953 135.239 11.2396 135.387 13.1615C135.505 14.7018 136.059 16.0757 137.173 17.1968C139.198 19.2362 142.841 19.7424 145.499 18.3297C146.048 18.0382 146.52 17.7029 146.924 17.3282L146.931 19.1986H148.886ZM146.924 12.4412V12.5894C146.83 14.5047 146.127 16.0504 144.317 16.9159C141.577 18.2259 137.768 16.962 137.358 13.1841C137.176 11.5058 137.573 9.9923 138.898 8.85138C140.367 7.58688 142.099 7.37776 143.9 8.01152C145.642 8.62484 146.564 9.94023 146.847 11.7047C146.887 11.9591 146.903 12.2163 146.924 12.4412Z" fill="white"/>
<path d="M114.547 7.62279C111.806 7.62279 109.844 9.59115 109.844 12.4453C109.844 15.3238 111.806 17.2922 114.547 17.2922C116.282 17.2922 117.715 16.7017 118.645 15.619L119.777 16.7507C118.595 18.1533 116.759 18.9899 114.471 18.9899C110.624 18.9899 107.908 16.3081 107.908 12.4453C107.908 8.60687 110.649 5.90039 114.471 5.90039C116.608 5.90039 118.369 6.61407 119.576 7.81968L118.494 9.14829C117.489 8.18864 116.156 7.62279 114.547 7.62279Z" fill="white"/>
<path d="M70.3699 6.87207V19.2013H68.4068V17.469C67.2308 18.5599 65.7646 19.2505 63.3738 19.2752C60.2782 19.2752 58.416 17.3515 58.416 14.2189V6.87207H60.379V13.7258C60.379 16.0441 61.5396 17.5456 63.8298 17.5456C66.573 17.4961 68.4068 15.4029 68.4068 12.5913V6.87207H70.3699Z" fill="white"/>
<path d="M161.293 11.7733C161.165 9.2211 159.429 7.56981 156.8 7.56981C154.221 7.56981 152.383 9.2211 152.102 11.7733H161.293ZM163.08 13.3247H152.102C152.434 15.927 154.349 17.6284 156.979 17.6284C158.638 17.6284 160.093 17.0279 161.14 15.9518L162.237 17.0779C160.961 18.454 159.072 19.2548 156.825 19.2548C152.868 19.2548 150.137 16.5275 150.137 12.599C150.137 8.67067 152.894 5.9684 156.8 5.94336C161.14 5.94336 163.284 8.87077 163.08 13.3247Z" fill="white"/>
<path d="M168.818 7.56944C167.329 7.56944 166.194 8.08722 166.194 9.31967C166.194 12.2533 173.61 10.7498 173.61 15.4089C173.61 17.9483 171.29 19.0822 168.742 19.0822C166.85 19.0822 164.908 18.4412 163.646 17.258L164.403 15.8527C165.538 16.8883 167.254 17.5044 168.818 17.5044C170.382 17.5044 171.643 16.9127 171.668 15.6062C171.744 12.4506 164.302 14.053 164.327 9.4677C164.327 7.00238 166.522 5.94238 168.944 5.94238C170.533 5.94238 172.072 6.41069 173.181 7.12577L172.425 8.605C171.391 7.96383 170.054 7.56944 168.818 7.56944Z" fill="white"/>
</g>
<defs>
<linearGradient id="paint0_linear_137_9447" x1="21.6025" y1="5.6476" x2="39.3999" y2="5.6476" gradientUnits="userSpaceOnUse">
<stop stop-color="#56AAFF"/>
<stop offset="1" stop-color="#8636FF"/>
</linearGradient>
<linearGradient id="paint1_linear_137_9447" x1="28.4191" y1="20.3704" x2="39.6645" y2="20.3704" gradientUnits="userSpaceOnUse">
<stop stop-color="#56AAFF"/>
<stop offset="1" stop-color="#8636FF"/>
</linearGradient>
<clipPath id="clip0_137_9447">
<rect width="173.61" height="24.5749" fill="white" transform="translate(0 0.712891)"/>
</clipPath>
</defs>
</svg>
