<svg width="63" height="62" viewBox="0 0 63 62" fill="none" xmlns="http://www.w3.org/2000/svg">
<path d="M20.6598 49.6699C23.0482 50.8938 24.7314 50.1957 25.7529 50.0657L27.0736 52.7628C24.8969 53.5875 20.2047 51.8449 20.6598 49.6699Z" fill="white" stroke="#292F6D" stroke-width="0.7"/>
<path d="M17.4746 45.5205C20.976 47.2099 24.6898 46.0993 27.1049 45.545L28.3025 48.1248C26.4883 53.2054 17.2543 50.6337 17.4746 45.5205Z" fill="white" stroke="#292F6D" stroke-width="0.7"/>
<path d="M14.6152 40.0381C17.2735 43.4704 22.3866 44.5352 24.7635 43.6369L24.7382 47.2314C20.4245 47.1134 15.0615 47.122 14.6152 40.0381Z" fill="white" stroke="#292F6D" stroke-width="0.7"/>
<path d="M12.5997 35.3867C14.324 37.779 19.9669 41.6815 23.8004 41.1113L24.9952 43.6295C21.5231 45.8236 12.5765 42.5715 12.5997 35.3867Z" fill="white" stroke="#292F6D" stroke-width="0.7"/>
<path d="M11.0647 31.0713C12.5546 33.5289 18.3515 37.8717 22.0117 37.644L23.4393 41.5015C19.3665 42.1776 10.1098 36.6642 11.0647 31.0713Z" fill="white" stroke="#292F6D" stroke-width="0.7"/>
<path d="M9.82809 27.374C11.5944 30.3011 17.1711 33.7475 20.5806 33.9966L21.698 38.1456C17.2312 37.6441 8.60711 31.8216 9.82809 27.374Z" fill="white" stroke="#292F6D" stroke-width="0.7"/>
<path d="M8.63736 23.5049C11.432 27.0333 16.3052 29.7916 19.2125 29.9192L20.044 34.3479C15.5545 33.6521 7.62385 28.9635 8.63736 23.5049Z" fill="white" stroke="#292F6D" stroke-width="0.7"/>
<path d="M7.37222 19.2949C12.0206 24.101 15.5897 25.7194 18.1791 26.1087L18.6349 30.261C14.4538 29.7566 6.13482 24.49 7.37222 19.2949Z" fill="white" stroke="#292F6D" stroke-width="0.7"/>
<path d="M6.19522 14.1211C10.1843 19.5641 15.143 21.6476 17.3065 22.637L17.4785 26.432C14.1302 25.9242 4.32833 20.4655 6.19522 14.1211Z" fill="white" stroke="#292F6D" stroke-width="0.7"/>
<path d="M5.01133 9.73926C10.0247 15.3429 11.6698 16.3463 16.9951 19.2885L16.7078 22.9552C15.413 22.4094 3.85143 16.9456 5.01133 9.73926Z" fill="white" stroke="#292F6D" stroke-width="0.7"/>
<path d="M3.7058 4.81055C8.26411 10.2786 11.802 12.4775 16.5706 15.3805L16.1182 19.2635C13.3902 18.7439 2.5303 11.1459 3.7058 4.81055Z" fill="white" stroke="#292F6D" stroke-width="0.7"/>
<path d="M41.7732 49.8486C39.3848 51.0725 37.7015 50.3744 36.6801 50.2444L35.3594 52.9415C37.536 53.7662 42.2282 52.0236 41.7732 49.8486Z" fill="white" stroke="#292F6D" stroke-width="0.7"/>
<path d="M44.4716 46.3281C40.9702 48.0175 37.2564 46.9069 34.8412 46.3526L34.6309 49.0153C37.3061 52.7582 45.0867 50.8257 44.4716 46.3281Z" fill="white" stroke="#292F6D" stroke-width="0.7"/>
<path d="M48.0095 41.0234C45.5183 44.1771 39.4992 44.1155 36.4657 43.335L35.2578 46.9721C40.1184 48.8077 48.4012 47.8874 48.0095 41.0234Z" fill="white" stroke="#292F6D" stroke-width="0.7"/>
<path d="M49.5844 37.2988C47.2024 39.5868 41.8014 41.1831 38.703 40.7294L36.7031 43.7435C41.7126 44.7984 49.4713 44.0363 49.5844 37.2988Z" fill="white" stroke="#292F6D" stroke-width="0.7"/>
<path d="M39.0039 41.1481C43.8361 41.9417 52.9061 38.099 51.5817 32.542C49.3468 34.8744 43.5256 38.0036 40.4314 37.871" fill="white"/>
<path d="M39.0039 41.1481C43.8361 41.9417 52.9061 38.099 51.5817 32.542C49.3468 34.8744 43.5256 38.0036 40.4314 37.871" stroke="#292F6D" stroke-width="0.7"/>
<path d="M53.0511 28.5947C50.4315 31.7474 40.0594 35.7141 37.1729 35.8249L36.7988 39.4105C41.5695 39.9187 54.8882 34.5831 53.0511 28.5947Z" fill="white" stroke="#292F6D" stroke-width="0.7"/>
<path d="M54.5856 24.4893C51.3358 27.9093 46.4463 30.0702 43.7128 30.2391L42.5117 34.6483C47.0208 34.2694 55.4255 29.8468 54.5856 24.4893Z" fill="white" stroke="#292F6D" stroke-width="0.7"/>
<path d="M55.869 20.3789C51.2207 25.185 47.5068 25.9407 44.9174 26.33L43.8867 30.7169C48.0687 30.2139 57.2081 25.7676 55.869 20.3789Z" fill="white" stroke="#292F6D" stroke-width="0.7"/>
<path d="M57.0122 15.5273C52.0571 21.2017 47.9586 22.123 45.4492 22.8315L45.5647 26.6657C49.7903 26.6402 59.1847 21.1202 57.0122 15.5273Z" fill="white" stroke="#292F6D" stroke-width="0.7"/>
<path d="M58.3593 10.4805C53.3459 16.0842 51.4955 16.5795 46.1702 19.5217L46.0059 23.1883C48.9372 22.8332 59.6414 17.68 58.3593 10.4805Z" fill="white" stroke="#292F6D" stroke-width="0.7"/>
<path d="M59.8672 5.39551C55.7027 10.8261 52.0855 12.6847 46.6328 15.6528L46.9621 19.4577C50.049 18.9951 61.3395 11.7779 59.8672 5.39551Z" fill="white" stroke="#292F6D" stroke-width="0.7"/>
<path d="M61.928 1.83594C57.0216 5.63001 51.7225 10.1516 46.5898 14.2687L47.5753 15.754C49.3534 14.7447 58.5696 10.8657 61.928 1.83594Z" fill="white" stroke="#292F6D" stroke-width="0.7"/>
<path d="M1.64844 1.25C6.55488 5.04407 11.6486 9.83926 16.7813 13.9563L15.7958 15.4416C14.3855 14.4323 5.16882 10.2797 1.64844 1.25Z" fill="white" stroke="#292F6D" stroke-width="0.7"/>
<path d="M40.2893 40.6786C42.5896 40.0733 44.7409 35.9204 42.5933 34.5605C41.6816 36.5879 36.4682 35.9084 35.2773 36.3142" fill="white"/>
<path d="M40.2893 40.6786C42.5896 40.0733 44.7409 35.9204 42.5933 34.5605C41.6816 36.5879 36.4682 35.9084 35.2773 36.3142" stroke="#292F6D" stroke-width="0.7"/>
<path d="M39.8457 36.8788C42.0509 37.0908 45.4476 33.1655 43.7833 31.2451C42.12 33.1012 35.0936 33.9616 34.0977 34.2594" fill="white"/>
<path d="M39.8457 36.8788C42.0509 37.0908 45.4477 33.1655 43.7833 31.2451C42.12 33.1012 35.0936 33.9616 34.0977 34.2594" stroke="#292F6D" stroke-width="0.7"/>
<path d="M45.2134 27.7861C43.5502 29.6422 41.7634 29.8094 40.7675 30.1071L39.3555 33.8849C42.883 33.5019 46.0007 30.3232 45.2134 27.7861Z" fill="white" stroke="#292F6D" stroke-width="0.7"/>
<path d="M46.2577 24.1689C44.8172 26.1867 43.353 26.6171 42.3972 27.0165L41.3301 30.4432C44.5658 30.0071 47.3052 26.6108 46.2577 24.1689Z" fill="white" stroke="#292F6D" stroke-width="0.7"/>
<path d="M46.954 21.2676C45.5136 23.2854 44.0494 23.7434 43.0936 24.1428L42.1426 27.3207C45.4285 26.813 48.3682 23.1858 46.954 21.2676Z" fill="white" stroke="#292F6D" stroke-width="0.7"/>
<path d="M48.258 17.8125C46.7076 20.1966 44.3584 21.5995 43.4394 21.8762L42.7207 24.5566C46.0585 23.9758 49.0363 20.6867 48.258 17.8125Z" fill="white" stroke="#292F6D" stroke-width="0.7"/>
<path d="M48.7532 14.3311C47.2028 16.7152 45.26 17.9246 44.3411 18.2013L42.8965 22.3189C46.2649 21.6904 50.7334 16.9181 48.7532 14.3311Z" fill="white" stroke="#292F6D" stroke-width="0.7"/>
<path d="M49.805 11.6445C48.4237 12.4911 44.6444 16.0048 42.5186 17.6059C39.6859 20.28 40.638 21.8527 41.0531 24.0261C41.6098 26.9414 40.6429 29.6368 39.2168 32.5647L39.9817 33.0169C40.3331 32.8598 43.721 28.3307 43.5946 24.3963C43.4877 21.0705 45.1424 18.5662 45.7863 18.046C48.8247 15.591 50.3035 13.3305 49.805 11.6445Z" fill="white" stroke="#292F6D" stroke-width="0.7"/>
<path d="M19.9635 33.9756C21.389 36.0029 25.7188 36.9505 26.6716 37.3563L27.5218 38.3769C23.7126 41.8798 18.5859 37.9493 19.9635 33.9756Z" fill="white" stroke="#292F6D" stroke-width="0.7"/>
<path d="M19.0022 30.4238C20.2559 33.0198 22.7947 33.6674 23.338 33.4768L24.126 36.2336C22.2254 36.4936 18.1593 34.9086 19.0022 30.4238Z" fill="white" stroke="#292F6D" stroke-width="0.7"/>
<path d="M17.8705 27.0049C19.2051 29.4553 21.2916 30.6653 22.5012 30.5766L24.1185 33.9245C21.7664 34.8737 16.6363 30.2933 17.8705 27.0049Z" fill="white" stroke="#292F6D" stroke-width="0.7"/>
<path d="M16.9576 23.7207C17.7595 26.0424 20.6835 26.677 21.6393 27.0764L22.5011 30.3663C18.9854 30.2699 15.5339 26.6522 16.9576 23.7207Z" fill="white" stroke="#292F6D" stroke-width="0.7"/>
<path d="M16.1786 20.915C17.6191 22.9328 19.7197 23.5472 20.6755 23.9466L21.2364 27.32C17.968 26.836 15.087 23.2719 16.1786 20.915Z" fill="white" stroke="#292F6D" stroke-width="0.7"/>
<path d="M15.1794 17.6172C16.4546 20.0886 19.6843 21.2382 20.8193 21.4463L20.2445 24.244C17.0374 23.4695 14.4551 20.4113 15.1794 17.6172Z" fill="white" stroke="#292F6D" stroke-width="0.7"/>
<path d="M14.4179 13.665C15.9683 16.0492 18.1163 17.923 19.0353 18.1997L20.4388 21.731C17.0957 21.0306 12.8745 17.7353 14.4179 13.665Z" fill="white" stroke="#292F6D" stroke-width="0.7"/>
<path d="M13.6302 11.3135C15.0115 12.16 18.7037 15.7566 20.8295 17.3577C24.0273 20.0318 22.2165 21.9766 21.9956 24.1831C21.5895 28.2392 23.1589 31.5105 24.0073 33.2473C24.2585 33.7617 24.1449 36.1004 22.9426 35.3295C22.5912 35.1723 19.3289 28.2482 19.4632 24.3139C19.5764 20.9969 18.8949 18.9199 17.7941 17.9637C14.9727 15.5126 13.0736 13.1931 13.6302 11.3135Z" fill="white" stroke="#292F6D" stroke-width="0.7"/>
<path d="M55.6281 47.6006C52.7987 49.7371 50.3216 51.6569 44.7188 54.44L47.3344 59.5478C47.57 59.9236 48.3989 60.0772 48.8808 59.8157C52.4203 57.8955 55.6453 55.5853 59.7447 52.3484L55.6281 47.6006Z" fill="white" stroke="#292F6D" stroke-width="0.7"/>
<path d="M6.8464 47.0557C9.54469 49.2353 12.3243 51.4218 17.7162 54.3193L14.5645 59.0146C14.3213 59.3757 13.5045 59.5009 13.0415 59.2301C9.6407 57.2408 6.5609 54.879 2.65625 51.5824L6.8464 47.0557Z" fill="white" stroke="#292F6D" stroke-width="0.7"/>
<path d="M12.5193 47.1963C14.3049 48.5156 11.948 49.2345 18.9609 52.3438L14.7929 58.5517C14.7929 58.5517 14.6881 57.7647 14.141 57.3868C12.2641 55.9763 10.4899 54.8592 8.68432 53.6526C7.90131 53.1294 8.15029 52.9085 8.65793 52.2822L12.5193 47.1963Z" fill="white" stroke="#292F6D" stroke-width="0.7"/>
<path d="M49.7509 47.3008C47.8828 48.5892 51.0434 49.4133 43.7793 52.3608L47.2192 59.3124C47.1873 59.4116 47.0934 58.414 47.8317 57.8583C49.7962 56.4798 51.8405 55.3044 53.725 54.1315C54.5422 53.6229 54.2959 53.3899 53.7999 52.7352L49.7509 47.3008Z" fill="white" stroke="#292F6D" stroke-width="0.7"/>
<path d="M12.5116 47.1934C20.6384 52.6996 33.8721 57.6102 49.7428 47.2847L53.9893 52.9647C53.8896 52.8335 53.3117 52.6605 52.87 52.9974C35.1216 63.4136 23.1559 60.8877 9.37937 52.5517C8.88002 52.3642 8.70632 52.4982 8.51367 52.542L12.5116 47.1934Z" fill="white" stroke="#292F6D" stroke-width="0.7"/>
<path d="M38.8247 56.9054C38.7272 56.4108 38.7897 56.3336 39.358 56.2471C39.7354 56.1896 39.8201 56.1359 39.7732 55.9838C39.7408 55.8787 39.6788 55.6022 39.6354 55.3693C39.592 55.1364 39.4953 54.9236 39.4205 54.8963C39.3458 54.8689 38.9047 54.9227 38.4404 55.0156C37.9761 55.1086 37.5542 55.1847 37.5028 55.1847C37.4006 55.1847 37.0986 53.8671 37.1825 53.7873C37.211 53.7602 37.4266 53.7083 37.6617 53.672C38.023 53.6162 38.0986 53.6401 38.1497 53.8261C38.2101 54.0457 38.2126 54.0457 39.3041 53.8228C39.9057 53.6998 40.4229 53.6231 40.4535 53.6522C40.4841 53.6813 40.5403 53.9012 40.5785 54.1409C40.6167 54.3806 40.7487 54.9581 40.8718 55.4242C41.1284 56.3958 41.1485 56.6883 40.9664 56.7954C40.8172 56.8832 39.2481 57.2805 39.0394 57.2833C38.9625 57.2844 38.8658 57.1143 38.8247 56.9054Z" fill="#292F6D"/>
<path d="M43.7632 54.8807C43.5577 54.4094 43.2383 53.7373 43.0532 53.3871L42.7168 52.7503L43.9676 52.1885C44.6555 51.8795 45.2706 51.6174 45.3345 51.6061C45.3983 51.5948 45.5073 51.5517 45.5767 51.5104C45.646 51.4691 45.8551 51.4724 46.0412 51.5177C46.3283 51.5876 46.4636 51.7647 46.9319 52.684C47.7098 54.2113 47.7107 54.2188 47.1408 54.4635C46.8806 54.5752 46.6482 54.6463 46.6244 54.6216C46.6006 54.5969 46.3861 54.2036 46.1476 53.7475C45.5307 52.5676 45.5843 52.6022 44.8878 52.9352C44.1539 53.286 44.1732 53.2691 44.3111 53.4408C44.3733 53.5183 44.6134 53.9674 44.8448 54.4389L45.2654 55.2961L44.8109 55.5168C44.561 55.6382 44.3071 55.7375 44.2466 55.7375C44.1861 55.7375 43.9686 55.3519 43.7632 54.8807Z" fill="#292F6D"/>
<path d="M41.3852 54.1873C41.2121 53.7561 41.0892 53.3906 41.1121 53.3752C41.1351 53.3597 41.3714 53.2688 41.6374 53.1731L42.1209 52.999L42.4624 53.8088L42.8039 54.6185L42.5015 54.7284C41.6982 55.0202 41.7247 55.033 41.3852 54.1873Z" fill="#292F6D"/>
<path d="M25.5567 57.7126C25.2705 57.6341 25.1889 57.5594 25.2356 57.4186C25.3117 57.1893 25.5148 56.2677 25.6064 55.7356L25.6733 55.347L24.6404 55.1482C23.3109 54.8924 23.3038 54.8878 23.4531 54.3728C23.5432 54.0624 23.623 53.9711 23.7698 54.0106C23.8777 54.0396 24.5409 54.1742 25.2435 54.3097C25.9462 54.4451 26.5908 54.6163 26.6761 54.6901C26.8051 54.8018 26.7989 54.9887 26.6387 55.8059C26.201 58.0393 26.2746 57.9096 25.5567 57.7126Z" fill="#292F6D"/>
<path d="M23.1983 57.2672L22.7812 57.1612L22.9774 56.3666C23.0853 55.9295 23.2084 55.58 23.2509 55.5901C23.2935 55.6001 23.5365 55.6417 23.7911 55.6827C24.0457 55.7236 24.254 55.7802 24.254 55.8085C24.254 56.1402 23.8542 57.3932 23.7511 57.3846C23.6764 57.3782 23.4276 57.3254 23.1983 57.2672Z" fill="#292F6D"/>
<path d="M20.912 56.6024C20.8051 56.4975 20.7729 56.2844 20.6644 56.0083C20.5359 55.6813 20.3974 55.2874 20.3567 55.133C20.316 54.9785 20.2438 54.8521 20.1965 54.8521C20.149 54.8521 19.8842 55.1218 19.6078 55.4514L19.1054 56.0507L18.6323 55.8756C18.3721 55.7793 18.1408 55.6869 18.1182 55.6702C18.0956 55.6536 18.4549 55.2129 18.9166 54.691L19.756 53.7421L19.6094 53.2437C19.5288 52.9695 19.4831 52.7273 19.5079 52.7053C19.5326 52.6834 19.8189 52.7779 20.144 52.9155C20.7196 53.159 20.7409 53.1848 20.9555 53.8983C21.0768 54.3013 21.2158 54.631 21.2645 54.631L22.1338 53.5772L23.1011 53.8677L22.4013 54.8305C22.0164 55.3601 21.7015 55.874 21.7015 55.9726C21.7015 56.0711 21.7806 56.3319 21.8773 56.5521C21.9704 56.7642 22.0204 56.8739 21.9709 56.9055L20.912 56.6024Z" fill="#292F6D"/>
<path d="M17.1145 55.16C16.859 55.0364 16.633 54.9213 16.6123 54.9041C16.5915 54.8869 16.9213 54.2221 17.3451 53.4267L18.1157 51.9805L18.5733 52.2027C18.8249 52.3249 19.0308 52.4413 19.0308 52.4614C19.0308 52.4814 18.7042 53.1474 18.3049 53.9413L17.5791 55.3847L17.1145 55.16Z" fill="#292F6D"/>
<path d="M15.5096 54.3929C15.2659 54.2732 15.083 54.1396 15.1031 54.0959C15.4161 53.4157 16.6277 51.3135 16.7068 51.3135C16.7654 51.3135 16.988 51.4263 17.2015 51.5642L17.5897 51.815L16.9822 52.8632C16.6482 53.4398 16.2798 54.0688 16.1637 54.261L15.9525 54.6106L15.5096 54.3929Z" fill="#292F6D"/>
<path d="M12.5203 52.7357C12.2993 52.6091 12.1008 52.4902 12.0793 52.4717C12.0577 52.4531 12.3125 52.0135 12.6455 51.4947C12.9785 50.976 13.2222 50.4804 13.1872 50.3934C13.1521 50.3064 12.8319 50.0765 12.4758 49.8825C12.1196 49.6885 11.8281 49.4699 11.8281 49.3967C11.8281 49.2902 11.9937 49.0048 12.2429 48.6815C12.287 48.6244 14.3112 49.898 14.4703 50.0829C14.5501 50.1757 14.6155 50.3057 14.6155 50.3718C14.6155 50.4378 14.2345 51.0485 13.7688 51.7289L12.9221 52.9658L12.5203 52.7357Z" fill="#292F6D"/>
<path d="M14.7088 52.2384L14.2793 51.9576L14.5887 51.4989C15.2533 50.5134 15.2472 50.5181 15.5479 50.7664C15.6934 50.8866 15.8802 50.9849 15.963 50.9849C16.0561 50.9849 15.9345 51.2806 15.6449 51.7587C15.3871 52.1843 15.1676 52.5296 15.1572 52.526C15.1467 52.5223 14.9449 52.3929 14.7088 52.2384Z" fill="#292F6D"/>
<path d="M23.0938 9.78711C28.4693 11.6357 31.4129 16.1536 32.0932 19.1714C24.9438 16.3844 23.0865 12.0074 23.0938 9.78711Z" fill="white" stroke="#292F6D" stroke-width="0.7"/>
<path d="M23.1328 9.84473L32.0487 19.1856L23.1328 9.84473Z" fill="white"/>
<path d="M23.1328 9.84473L32.0487 19.1856" stroke="#292F6D" stroke-width="0.7"/>
<path d="M38.9844 14.7676C32.4885 20.4223 32.1388 25.9424 32.6125 28.8289C38.6757 24.4737 39.2818 19.059 38.9844 14.7676Z" fill="white" stroke="#292F6D" stroke-width="0.7"/>
<path d="M38.9668 14.835L32.6 28.7986L38.9668 14.835Z" fill="white"/>
<path d="M38.9668 14.835L32.6 28.7986" stroke="#292F6D" stroke-width="0.7"/>
<path d="M36.8133 36.6508C42.8247 32.2049 42.4994 28.5764 42.4238 24.7178C37.7141 28.1107 37.0252 30.9636 36.8995 33.6599" fill="white"/>
<path d="M36.8133 36.6508C42.8247 32.2049 42.4994 28.5764 42.4238 24.7178C37.7141 28.1107 37.0252 30.9636 36.8995 33.6599" stroke="#292F6D" stroke-width="0.7"/>
<path d="M42.2324 24.8662L38.0157 34.2142L42.2324 24.8662Z" fill="white"/>
<path d="M42.2324 24.8662L38.0157 34.2142" stroke="#292F6D" stroke-width="0.7"/>
<path d="M46.7695 36.8018C41.1064 38.7467 39.5908 44.3164 38.6168 47.857C45.8133 44.4831 46.5346 39.4889 46.7695 36.8018Z" fill="white" stroke="#292F6D" stroke-width="0.7"/>
<path d="M46.543 36.9229C44.0186 40.3894 43.4381 40.5494 40.8062 43.9682L46.543 36.9229Z" fill="white"/>
<path d="M46.543 36.9229C44.0186 40.3894 43.4381 40.5494 40.8062 43.9682" stroke="#292F6D" stroke-width="0.7"/>
<path d="M27.959 51.5892V7.94714L31.2026 2.91699L34.4462 7.94714V51.5892C32.2838 51.5892 30.1214 51.5892 27.959 51.5892Z" fill="white" stroke="#292F6D" stroke-width="0.7"/>
<path d="M31.2031 51.5892V2.91699V51.5892Z" fill="white"/>
<path d="M31.2031 51.5892V2.91699" stroke="#292F6D" stroke-width="0.7"/>
<path d="M34.3781 51.9844H28.0195V59.8336H34.3781V51.9844Z" fill="white" stroke="#292F6D" stroke-width="0.7" stroke-linecap="round"/>
<path d="M34.3927 59.8467H28.0059C27.6208 59.8467 27.3086 60.1438 27.3086 60.5104V60.9794C27.3086 61.346 27.6208 61.6432 28.0059 61.6432H34.3927C34.7777 61.6432 35.0899 61.346 35.0899 60.9794V60.5104C35.0899 60.1438 34.7777 59.8467 34.3927 59.8467Z" fill="white" stroke="#292F6D" stroke-width="0.7" stroke-linecap="round"/>
<path d="M34.3781 54.8848H28.0195" stroke="#292F6D" stroke-width="0.7"/>
<path d="M34.3781 56.4336H28.0195" stroke="#292F6D" stroke-width="0.7"/>
<path d="M34.3781 58.2021H28.0195" stroke="#292F6D" stroke-width="0.7"/>
<path d="M33.5141 52.4668C32.0022 54.8034 30.4343 57.0702 28.7778 59.2347C28.7468 59.2309 28.7156 59.2278 28.6835 59.2278C28.2729 59.2278 27.9395 59.5452 27.9395 59.9361C27.9395 60.3269 28.2729 60.6408 28.6835 60.6408C29.0941 60.6408 29.4275 60.3269 29.4275 59.9361C29.4275 59.8655 29.4186 59.7965 29.3985 59.7322C31.3383 57.1233 32.7638 55.0697 34.2473 52.795L33.5141 52.4668Z" fill="white" stroke="#292F6D" stroke-width="0.7"/>
<path d="M26.5466 50.1035L24.1113 51.634L26.5466 53.1644C34.6848 53.1644 27.7249 53.1644 35.8632 53.1644L38.2985 51.634L35.8632 50.1035C27.7249 50.1035 34.6848 50.1035 26.5466 50.1035Z" fill="white" stroke="#292F6D" stroke-width="0.7"/>
<path d="M38.0661 51.6338H24.1113H38.0661Z" fill="white"/>
<path d="M38.0661 51.6338H24.1113" stroke="#292F6D" stroke-width="0.7"/>
<path d="M38.5719 41.1091C38.5722 42.0311 38.3817 42.9442 38.0112 43.7962C37.6407 44.6481 37.0975 45.4223 36.4127 46.0744C35.7278 46.7265 34.9147 47.2438 34.0198 47.5967C33.1249 47.9496 32.1658 48.1313 31.1971 48.1313C30.2284 48.1313 29.2693 47.9496 28.3744 47.5967C27.4795 47.2438 26.6664 46.7265 25.9815 46.0744C25.2967 45.4223 24.7535 44.6481 24.383 43.7962C24.0125 42.9442 23.822 42.0311 23.8223 41.1091C23.822 40.187 24.0125 39.2739 24.383 38.422C24.7535 37.57 25.2967 36.7959 25.9815 36.1438C26.6664 35.4917 27.4795 34.9744 28.3744 34.6215C29.2693 34.2686 30.2284 34.0869 31.1971 34.0869C32.1658 34.0869 33.1249 34.2686 34.0198 34.6215C34.9147 34.9744 35.7278 35.4917 36.4127 36.1438C37.0975 36.7959 37.6407 37.57 38.0112 38.422C38.3817 39.2739 38.5722 40.187 38.5719 41.1091Z" fill="#292F6D"/>
<path d="M25.4766 37.9657L29.2976 37.9657L31.1964 34.8223L33.0953 37.9657L36.9163 37.9657L34.9941 41.1093L36.9163 44.2528L33.0953 44.2528L31.1964 47.3962L29.2976 44.2528L25.4766 44.2528L27.3987 41.1093L25.4766 37.9657Z" fill="white"/>
<path d="M32.9309 47.5098H29.3887V50.0256H32.9309V47.5098Z" fill="#292F6D"/>
<path d="M34.6152 49.8725C36.5049 50.2014 37.8035 49.0952 38.6405 47.9209C37.2933 48.0497 35.6021 48.1072 34.6152 49.8725Z" fill="white" stroke="#292F6D" stroke-width="0.7"/>
<path d="M37.0488 47.5678C39.2658 48.0557 40.11 46.6737 40.6527 45.2568C39.3316 45.539 37.8055 45.7024 37.0488 47.5678Z" fill="white" stroke="#292F6D" stroke-width="0.7"/>
<path d="M39.2734 45.168C41.4167 44.8918 41.6557 43.35 41.8403 41.918C40.6409 42.516 39.4971 43.1796 39.2734 45.168Z" fill="white" stroke="#292F6D" stroke-width="0.7"/>
<path d="M40.2267 42.3643C42.133 41.5815 41.7749 39.9897 41.7396 38.5371C40.7495 39.4157 39.9455 40.4298 40.2267 42.3643Z" fill="white" stroke="#292F6D" stroke-width="0.7"/>
<path d="M40.4242 39.363C42.0453 38.1162 41.0082 36.4479 40.5293 35.4043C39.9046 36.5085 39.6446 37.546 40.4242 39.363Z" fill="white" stroke="#292F6D" stroke-width="0.7"/>
<path d="M39.3895 36.512C40.3893 34.6895 38.8355 33.3378 37.9059 32.6348C37.7359 33.9134 37.8032 35.2009 39.3895 36.512Z" fill="white" stroke="#292F6D" stroke-width="0.7"/>
<path d="M37.2174 34.0862C36.8337 31.6836 35.1948 31.4059 34.4512 31.1816C34.5885 32.5668 35.1383 33.4316 37.2174 34.0862Z" fill="white" stroke="#292F6D" stroke-width="0.7"/>
<path d="M35.1325 33.2517C34.0399 31.5381 32.2995 31.9799 31.4023 31.99C32.3521 33.1286 33.4522 33.5064 35.1325 33.2517Z" fill="white" stroke="#292F6D" stroke-width="0.7"/>
<path d="M27.377 33.3095C28.8414 31.314 30.1698 32.044 31.1174 32.0771C30.4347 33.1846 28.9439 33.6401 27.377 33.3095Z" fill="white" stroke="#292F6D" stroke-width="0.7"/>
<path d="M27.7244 49.7977C25.5824 50.0095 24.6515 49.0779 23.8945 47.9668C25.247 48.0465 26.6704 48.0703 27.7244 49.7977Z" fill="white" stroke="#292F6D" stroke-width="0.7"/>
<path d="M25.1311 47.4803C22.9855 47.7416 21.88 46.2528 21.418 44.915C22.65 45.2254 24.2995 45.6386 25.1311 47.4803Z" fill="white" stroke="#292F6D" stroke-width="0.7"/>
<path d="M23.053 44.951C20.7575 44.2692 20.7552 43.0847 20.6914 41.9746C21.9987 42.5726 22.8814 42.9627 23.053 44.951Z" fill="white" stroke="#292F6D" stroke-width="0.7"/>
<path d="M22.2442 42.243C20.3222 41.4528 20.4349 39.8 20.7458 38.4785C21.8327 39.0051 22.5748 40.2443 22.2442 42.243Z" fill="white" stroke="#292F6D" stroke-width="0.7"/>
<path d="M22.3259 39.2564C20.7639 37.9588 21.6391 35.8177 22.0926 35.3076C22.7301 36.4059 23.0975 37.432 22.3259 39.2564Z" fill="white" stroke="#292F6D" stroke-width="0.7"/>
<path d="M23.3053 36.299C22.3054 34.4765 23.6334 33.2812 24.563 32.5781C24.733 33.8567 24.8915 34.9879 23.3053 36.299Z" fill="white" stroke="#292F6D" stroke-width="0.7"/>
<path d="M25.5117 34.1862C25.5923 31.9608 27.1585 31.4968 28.0985 31.1582C27.9401 32.5319 27.5139 33.4893 25.5117 34.1862Z" fill="white" stroke="#292F6D" stroke-width="0.7"/>
<path d="M34.4461 49.658C33.9238 47.7305 34.7388 46.5723 35.7396 45.6494C35.9549 46.6472 35.9808 48.1682 34.4461 49.658Z" fill="white" stroke="#292F6D" stroke-width="0.7"/>
<path d="M36.8268 47.4013C35.5691 45.5882 36.641 44.0594 37.4077 43.4775C37.8417 44.679 38.1506 45.8402 36.8268 47.4013Z" fill="white" stroke="#292F6D" stroke-width="0.7"/>
<path d="M39.0341 45.0866C37.0341 43.2987 37.8022 42.28 38.1635 41.2637C39.0411 42.172 39.9281 43.5363 39.0341 45.0866Z" fill="white" stroke="#292F6D" stroke-width="0.7"/>
<path d="M39.935 42.3749C37.8809 41.6732 38.2144 39.8857 37.8535 38.8662C39.4088 39.6053 40.1483 40.1909 39.935 42.3749Z" fill="white" stroke="#292F6D" stroke-width="0.7"/>
<path d="M40.1029 39.4678C37.7009 39.4146 37.0294 37.333 37.1404 36.8682C39.0817 37.5053 39.459 37.565 40.1029 39.4678Z" fill="white" stroke="#292F6D" stroke-width="0.7"/>
<path d="M39.2055 36.659C36.7062 37.1439 35.8759 35.9973 35.1836 35.1325C36.6164 34.9402 38.4287 34.9449 39.2055 36.659Z" fill="white" stroke="#292F6D" stroke-width="0.7"/>
<path d="M37.1259 34.3265C35.0499 35.6266 33.7384 34.5471 33.0664 34.3415C34.8619 33.2163 35.5221 33.2538 37.1259 34.3265Z" fill="white" stroke="#292F6D" stroke-width="0.7"/>
<path d="M27.9151 49.6966C28.5376 47.7748 27.5909 46.53 26.5529 45.6045C26.3556 46.8736 26.1316 48.8441 27.9151 49.6966Z" fill="white" stroke="#292F6D" stroke-width="0.7"/>
<path d="M25.3546 47.3092C26.4141 45.2905 25.482 44.1092 24.7744 43.543C24.3745 44.7769 24.0507 45.7669 25.3546 47.3092Z" fill="white" stroke="#292F6D" stroke-width="0.7"/>
<path d="M23.298 44.8801C24.6424 43.4436 24.5745 43.0621 24.2827 41.3291C23.3945 41.9631 22.4864 43.1527 23.298 44.8801Z" fill="white" stroke="#292F6D" stroke-width="0.7"/>
<path d="M22.5645 42.2328C24.5629 41.5222 24.2488 39.7897 24.367 39.1182C23.0148 39.5616 22.5666 39.9774 22.5645 42.2328Z" fill="white" stroke="#292F6D" stroke-width="0.7"/>
<path d="M22.5973 39.3593C24.6544 39.4362 25.4393 37.3146 25.334 36.9355C24.004 37.2123 22.5109 37.7137 22.5973 39.3593Z" fill="white" stroke="#292F6D" stroke-width="0.7"/>
<path d="M23.5098 36.4945C25.2122 37.2686 26.5284 36.0653 27.1651 35.2916C25.8918 34.8865 24.6535 34.7755 23.5098 36.4945Z" fill="white" stroke="#292F6D" stroke-width="0.7"/>
<path d="M25.6816 34.4044C27.7371 35.3139 28.6726 34.4043 29.3681 34.2367C27.4841 33.222 27.2289 33.431 25.6816 34.4044Z" fill="white" stroke="#292F6D" stroke-width="0.7"/>
<path d="M32.8105 50.0296C31.8604 48.4197 32.8403 47.7214 34.0816 46.6943C34.5156 47.7252 34.015 49.6672 32.8105 50.0296Z" fill="white" stroke="#292F6D" stroke-width="0.7"/>
<path d="M29.6101 50.0101C30.522 48.172 29.4353 47.5106 28.267 46.5576C27.9138 47.5811 28.5387 49.63 29.6101 50.0101Z" fill="white" stroke="#292F6D" stroke-width="0.7"/>
<path d="M32.2784 49.026C32.2785 49.1602 32.2509 49.293 32.197 49.417C32.1431 49.541 32.0641 49.6537 31.9645 49.7486C31.8649 49.8435 31.7466 49.9188 31.6164 49.9702C31.4861 50.0216 31.3466 50.048 31.2056 50.048C31.0647 50.048 30.9251 50.0216 30.7949 49.9702C30.6646 49.9188 30.5463 49.8435 30.4467 49.7486C30.3471 49.6537 30.2681 49.541 30.2142 49.417C30.1604 49.293 30.1327 49.1602 30.1328 49.026C30.1327 48.8918 30.1604 48.7589 30.2142 48.6349C30.2681 48.5109 30.3471 48.3982 30.4467 48.3033C30.5463 48.2084 30.6646 48.1331 30.7949 48.0817C30.9251 48.0304 31.0647 48.0039 31.2056 48.0039C31.3466 48.0039 31.4861 48.0304 31.6164 48.0817C31.7466 48.1331 31.8649 48.2084 31.9645 48.3033C32.0641 48.3982 32.1431 48.5109 32.197 48.6349C32.2509 48.7589 32.2785 48.8918 32.2784 49.026Z" fill="white" stroke="#292F6D" stroke-width="0.7"/>
<path d="M25.2642 23.0664C30.7388 24.4904 34.0525 28.9443 34.6803 32.1873C27.8112 30.3534 25.1078 25.6545 25.2642 23.0664Z" fill="white" stroke="#292F6D" stroke-width="0.7"/>
<path d="M25.2949 23.1006L34.6376 32.1472L25.2949 23.1006Z" fill="white"/>
<path d="M25.2949 23.1006L34.6376 32.1472" stroke="#292F6D" stroke-width="0.7"/>
</svg>
